<?xml version="1.0" encoding="UTF-8"?>
<svg version="1.1" xmlns="http://www.w3.org/2000/svg" width="48" height="48">
<path d="M0 0 C0 1.98 0 3.96 0 6 C0.804375 6.144375 1.60875 6.28875 2.4375 6.4375 C5 7 5 7 6 8 C6.25301239 12.13962283 6.18522549 16.29105996 6.1875 20.4375 C6.19974609 21.60861328 6.21199219 22.77972656 6.22460938 23.98632812 C6.22654297 25.10330078 6.22847656 26.22027344 6.23046875 27.37109375 C6.23457764 28.40161865 6.23868652 29.43214355 6.24291992 30.49389648 C6 33 6 33 4 35 C0.9609375 35.1953125 0.9609375 35.1953125 -2.625 35.125 C-4.40777344 35.09792969 -4.40777344 35.09792969 -6.2265625 35.0703125 C-7.59941406 35.03550781 -7.59941406 35.03550781 -9 35 C-9 36.65 -9 38.3 -9 40 C-7.68 40 -6.36 40 -5 40 C-5 40.66 -5 41.32 -5 42 C-11.6 42 -18.2 42 -25 42 C-25 41.34 -25 40.68 -25 40 C-23.68 40 -22.36 40 -21 40 C-21 38.35 -21 36.7 -21 35 C-22.37285156 35.03480469 -22.37285156 35.03480469 -23.7734375 35.0703125 C-25.55621094 35.09738281 -25.55621094 35.09738281 -27.375 35.125 C-28.55835938 35.14820313 -29.74171875 35.17140625 -30.9609375 35.1953125 C-34 35 -34 35 -36 33 C-36.25878906 30.50976562 -36.25878906 30.50976562 -36.265625 27.40625 C-36.26820312 26.29378906 -36.27078125 25.18132813 -36.2734375 24.03515625 C-36.26183594 22.28525391 -36.26183594 22.28525391 -36.25 20.5 C-36.25773437 19.33339844 -36.26546875 18.16679687 -36.2734375 16.96484375 C-36.27085938 15.85238281 -36.26828125 14.73992188 -36.265625 13.59375 C-36.26336914 12.56958984 -36.26111328 11.54542969 -36.25878906 10.49023438 C-36 8 -36 8 -34 6 C-31.8359375 5.8046875 -31.8359375 5.8046875 -29.375 5.875 C-28.14910156 5.90207031 -28.14910156 5.90207031 -26.8984375 5.9296875 C-25.95871094 5.96449219 -25.95871094 5.96449219 -25 6 C-25 5.34 -25 4.68 -25 4 C-26.65 3.67 -28.3 3.34 -30 3 C-30 2.01 -30 1.02 -30 0 C-18.09890595 -4.90045049 -11.90109405 -4.90045049 0 0 Z M-24 1 C-20.06973224 3.6201785 -16.67374058 3.96025731 -12 4 C-8.57174316 3.1950483 -8.57174316 3.1950483 -6 2 C-11.65192998 -1.76795332 -17.82160716 -1.6931456 -24 1 Z M-5 4 C-5 4.66 -5 5.32 -5 6 C-4.01 6 -3.02 6 -2 6 C-2 5.34 -2 4.68 -2 4 C-2.99 4 -3.98 4 -5 4 Z M-23 5 C-23 5.66 -23 6.32 -23 7 C-17.60624285 9.50535154 -17.60624285 9.50535154 -11.84375 9.53125 C-9.72246361 8.63204047 -9.72246361 8.63204047 -7 7 C-7.33 6.34 -7.66 5.68 -8 5 C-8.99 5.33 -9.98 5.66 -11 6 C-19.2173913 6.26086957 -19.2173913 6.26086957 -23 5 Z M-19 35 C-19 36.65 -19 38.3 -19 40 C-16.36 40 -13.72 40 -11 40 C-11 38.35 -11 36.7 -11 35 C-13.64 35 -16.28 35 -19 35 Z " fill="#12D8E2" transform="translate(39,4)"/>
<path d="M0 0 C0.19421438 2.95803435 0.38066186 5.91620163 0.5625 8.875 C0.61857422 9.71675781 0.67464844 10.55851563 0.73242188 11.42578125 C0.78076172 12.23144531 0.82910156 13.03710938 0.87890625 13.8671875 C0.9260376 14.61081543 0.97316895 15.35444336 1.02172852 16.12060547 C1 18 1 18 0 20 C-0.66 20 -1.32 20 -2 20 C-2.9360342 16.20732808 -2.98276252 13.06325435 -2.5625 9.1875 C-2.46066406 8.21167969 -2.35882813 7.23585938 -2.25390625 6.23046875 C-2.17011719 5.49441406 -2.08632813 4.75835937 -2 4 C-2.99 4 -3.98 4 -5 4 C-5 5.65 -5 7.3 -5 9 C-12.18479324 13.26331703 -12.18479324 13.26331703 -16.53125 12.6328125 C-19.48253493 11.62669264 -22.21515809 10.39242095 -25 9 C-25 7.35 -25 5.7 -25 4 C-26.65 3.67 -28.3 3.34 -30 3 C-30 2.01 -30 1.02 -30 0 C-18.09890595 -4.90045049 -11.90109405 -4.90045049 0 0 Z M-24 1 C-20.06973224 3.6201785 -16.67374058 3.96025731 -12 4 C-8.57174316 3.1950483 -8.57174316 3.1950483 -6 2 C-11.65192998 -1.76795332 -17.82160716 -1.6931456 -24 1 Z M-23 5 C-23 5.66 -23 6.32 -23 7 C-17.60624285 9.50535154 -17.60624285 9.50535154 -11.84375 9.53125 C-9.72246361 8.63204047 -9.72246361 8.63204047 -7 7 C-7.33 6.34 -7.66 5.68 -8 5 C-8.99 5.33 -9.98 5.66 -11 6 C-19.2173913 6.26086957 -19.2173913 6.26086957 -23 5 Z " fill="#324762" transform="translate(39,4)"/>
<path d="M0 0 C0.66 0 1.32 0 2 0 C2 2.31 2 4.62 2 7 C4.64 7 7.28 7 10 7 C10 4.69 10 2.38 10 0 C10.66 0 11.32 0 12 0 C12 2.31 12 4.62 12 7 C13.32 7 14.64 7 16 7 C16 7.66 16 8.32 16 9 C9.4 9 2.8 9 -4 9 C-4 8.34 -4 7.68 -4 7 C-2.68 7 -1.36 7 0 7 C0 4.69 0 2.38 0 0 Z " fill="#314662" transform="translate(18,37)"/>
</svg>
